<svg xmlns="http://www.w3.org/2000/svg" width="474.333" height="133.526" viewBox="0 0 370.324 104.247">
  <path xmlns="http://www.w3.org/2000/svg" fill="#973961" d="M19.7927 27.8117h35.1229l4.5873-22.9399c.133-.7147-.1995-1.446-.8477-1.795-2.3269-1.23-4.7036-2.2438-7.2965-3.0749l-.0133-.0016-2.3867 2.7507-.5252 2.9635c-.0166.098-.0549.1845-.0748.2809a10.6456 10.6456 0 0 1-10.4295 8.5164 10.6505 10.6505 0 0 1-7.8632-3.477 10.6107 10.6107 0 0 1-2.651-5.3236l-.5253-2.9569-2.385-2.7557c-.0067.0033-.015 0-.0216.0033-2.5929.831-5.0527 1.8782-7.2965 3.0915a1.6288 1.6288 0 0 0-.8477 1.6953l3.4538 23.023zm33.4608 8.3054.9972-4.9862h-33.956l.7479 4.9862zm3.1413 25.6125 15.4573 32.9256c.0664.1496.1495.2991.2493.4155-1.9114 1.8283-4.4045 3.3574-7.2965 4.604L52.788 62.1117c-.2992-.9473-1.2632-1.446-2.1274-1.1135s-1.313 1.3795-1.0139 2.3269l12.0334 37.5627c-2.8588.9474-5.9668 1.6787-9.158 2.2106L46.2063 62.411c-.1496-.9972-.9972-1.662-1.9114-1.4958-.9141.1662-1.5124 1.1135-1.3629 2.1108l6.2993 40.5545c-3.2577.4155-6.5486.615-9.6899.6648l-.083-41.1695c0-1.0138-.748-1.8282-1.6622-1.8282s-1.662.831-1.662 1.8449l.083 41.1362c-3.0747-.0499-6.3158-.2826-9.5402-.698l6.2328-40.139c.1662-.9973-.4488-1.9447-1.3463-2.1109-.9308-.1662-1.7784.4986-1.928 1.4959l-6.2494 40.272c-3.158-.532-6.2328-1.2466-9.0915-2.194L26.195 63.6908c.2992-.9474-.1496-1.9945-1.0139-2.3269-.8642-.3324-1.8116.1496-2.1274 1.1136L11.1533 99.658c-2.8422-1.1967-5.3353-2.6593-7.2799-4.4377.0499-.0665.0997-.1164.133-.1995l15.4572-32.9256c.4155-.8975.0997-2.011-.7147-2.4598-.8144-.4654-1.8283-.1164-2.2438.7811L1.4801 92.4446c-6.8977-10.9364 12.1995-43.0642 18.4655-53.0034h34.4215c6.5818 9.906 26.4435 41.4354 20.0612 52.7541L59.3533 60.051c-.4321-.8975-1.4294-1.2466-2.2438-.7812s-1.1302 1.5623-.7147 2.4599z"/>
  <path fill="#623448" d="M128.609 62.044V19.903a.9.9 0 0 1 .903-.903h11.438a.9.9 0 0 1 .903.903v45.352c0 14.449-7.926 20.97-22.876 20.97-14.148 0-22.978-5.618-22.978-20.97V19.903a.9.9 0 0 1 .903-.903h11.54a.9.9 0 0 1 .902.903v42.141c0 8.73 4.917 10.636 9.03 10.636h1.205c6.22 0 9.03-4.214 9.03-10.636zM102.22 25.421v39.031c0 9.03 6.12 15.553 15.653 15.553h2.508c9.532 0 15.753-6.823 15.753-15.553v-39.03c0-.904-1.204-1.004-1.204 0v39.03c0 8.228-5.92 14.248-14.549 14.248h-2.508c-8.428 0-14.449-5.418-14.449-14.248v-39.03c0-.904-1.204-.904-1.204 0zM224.694 19a.9.9 0 0 1 .903.903v64.416a.9.9 0 0 1-.903.903h-10.936c-.301 0-.803-.401-.803-.903V47.194L201.918 84.62c-.2.402-.402.602-.803.602h-7.927c-.3 0-.702-.2-.802-.602L182.05 46.492v37.827a.9.9 0 0 1-.903.903H170.01c-.402 0-.703-.401-.703-.903V19.903c0-.502.301-.903.703-.903h14.047c.401 0 .802.3.903.602l12.14 40.636 13.345-40.636c0-.301.301-.602.703-.602h13.545zm-6.22 60.102c0 .702 1.304.903 1.304 0V25.02c0-.2-.301-.502-.602-.502h-4.716c-.401 0-.502.301-.702.502l-16.656 49.667-16.556-49.767c0-.301-.2-.402-.502-.402h-4.916c-.301 0-.602.301-.602.602v53.982c0 .702 1.304.903 1.304 0v-53.28h3.713L196.5 76.795c.4.702.702.502 1.204 0l17.057-50.971h3.712v53.279zM279.741 19c6.823 0 11.94 1.906 15.351 5.619 3.01 3.31 4.516 8.227 4.516 14.247v26.59c0 12.14-7.024 19.766-19.867 19.766h-25.084c-.502 0-.803-.401-.803-.903V19.903c0-.502.3-.903.803-.903h25.084zm6.722 43.446v-20.57c0-6.32-3.31-10.334-10.334-10.334h-9.03V72.68h9.03c6.02 0 10.334-3.913 10.334-10.234zM259.975 25.12v53.982c0 .401.402.501.602.501h16.355c11.54 0 16.757-6.923 16.757-13.345V40.572c0-10.636-5.62-16.054-17.058-16.054h-16.054c-.2 0-.602.1-.602.602zm32.51 15.452v25.686c0 8.027-8.027 12.242-15.553 12.242H261.18V25.823h15.452c10.536 0 15.854 4.715 15.854 14.75zm46.619-20.97c.1-.301.3-.602.702-.602h12.442c.401 0 .602.3.702.602l17.359 64.516c.1.603-.301 1.104-.903 1.104h-11.439c-.3 0-.602-.2-.702-.602l-3.913-14.047h-14.65L334.89 84.62c-.1.402-.301.602-.703.602H322.65c-.602 0-1.004-.501-.904-1.104zm2.81 38.53h8.327l-4.314-15.152zm15.451 5.92 4.616 15.05c.2.602 1.304.501 1.003-.301L346.93 25.42c-.3-1.304-2.007-1.404-2.308 0L329.07 78.8c-.3.702.803 1.003 1.104.401l4.415-15.15h22.776zm-22.475-1.305 10.936-36.924 11.138 36.924H334.89z"/>
</svg>
